{"title":"20 Million Miles To Earth (1957) color  Blu ray rip","uid":5256146,"size":1779703808,"categoryP":"video","categoryS":"movies","magnet":"?xt=urn:btih:c08a1507f5e4ede9ec8b404bb45dc65bed95089e&amp;dn=20+Million+Miles+To+Earth+%281957%29+color++Blu+ray+rip&amp;tr=udp%3A%2F%2Ftracker.openbittorrent.com%3A80&amp;tr=udp%3A%2F%2Fopen.demonii.com%3A1337&amp;tr=udp%3A%2F%2Ftracker.coppersurfer.tk%3A6969&amp;tr=udp%3A%2F%2Fexodus.desync.com%3A6969","seeders":2,"leechers":0,"uploader":"Beebe85","files":-1,"time":1262555531,"description":"Complete name                    : 20 Million Miles To Earth (1957) color Blu ray rip\nFormat                           : MPEG-PS\nFile size                        : 1.66 GiB\nDuration                         : 1h 22mn\nOverall bit rate                 : 2875 Kbps\n\nVideo\nID                               : 224 (0xE0)\nFormat                           : MPEG Video\nFormat version                   : Version 2\nFormat profile                   : Main@Main\nFormat settings, Matrix          : Default\nDuration                         : 1h 22mn\nBit rate mode                    : Variable\nBit rate                         : 2440 Kbps\nNominal bit rate                 : 5800 Kbps\nWidth                            : 720 pixels\nHeight                           : 404 pixels\nDisplay aspect ratio             : 16:9\nFrame rate                       : 23.976 fps\nColorimetry                      : 4:2:0\nScan type                        : Progressive\nBits/(Pixel*Frame)               : 0.350\nStream size                      : 1.41 GiB (85%)\n\nAudio\nID                               : 128 (0x80)\nFormat                           : AC-3\nFormat/Info                      : Audio Coding 3\nDuration                         : 1h 22mn\nBit rate mode                    : Constant\nBit rate                         : 320 Kbps\nChannel(s)                       : 2 channels\nChannel positions                : L R\nSampling rate                    : 48.0 KHz\nStream size                      : 189 MiB (11%)\n\n\n\nNO subs\n\n &lt;a href=&quot;\nhttp://www.imdb.com/title/tt0050084/&quot; rel=&quot;nofollow&quot; target=&quot;_NEW&quot;&gt;\nhttp://www.imdb.com/title/tt0050084/&lt;/a&gt;\n\n\n\n\n\n","torrent":{"xt":"urn:btih:c08a1507f5e4ede9ec8b404bb45dc65bed95089e","amp;dn":"20+Million+Miles+To+Earth+%281957%29+color++Blu+ray+rip","amp;tr":["udp%3A%2F%2Ftracker.openbittorrent.com%3A80","udp%3A%2F%2Fopen.demonii.com%3A1337","udp%3A%2F%2Ftracker.coppersurfer.tk%3A6969","udp%3A%2F%2Fexodus.desync.com%3A6969"],"infoHash":"c08a1507f5e4ede9ec8b404bb45dc65bed95089e","infoHashBuffer":{"type":"Buffer","data":[192,138,21,7,245,228,237,233,236,139,64,75,180,93,198,91,237,149,8,158]},"announce":[],"urlList":[]}}